<svg id="Layer_1" data-name="Layer 1" xmlns="http://www.w3.org/2000/svg" viewBox="0 0 234.14 110.5"><defs><style>.cls-1{fill:#ffdd59;}.cls-2{fill:#e63547;}</style></defs><title>super pizza last</title><path class="cls-1" d="M86.68,20.6a85.23,85.23,0,0,0-73.75,0,3.88,3.88,0,0,0-1.76,5.26l3.35,6.51c1.29-.7,2.6-1.34,3.93-2a2.43,2.43,0,0,1-.23-1,2.53,2.53,0,0,1,4.87-1,74,74,0,0,1,15.43-4.16c-9.65,3-18.73,8.62-22.07,10.81l-.34.23,6.07,11.82a11.86,11.86,0,0,1,8.51-3.45A11.89,11.89,0,0,1,42.26,54.55a11.69,11.69,0,0,1-.91,5.52,3.09,3.09,0,1,1-3.75,4.76,11.72,11.72,0,0,1-5.17,2.22l15.42,30a2.29,2.29,0,0,0,4.08,0l5.63-11a11.76,11.76,0,0,1-5.67-3A3.1,3.1,0,1,1,48.69,78a11.93,11.93,0,0,1-.36-5.38A11.78,11.78,0,0,1,67.94,65.9l14.89-29c-.55-.63-1.34-1.47-2.36-2.43A1.91,1.91,0,0,1,77.6,32a46.25,46.25,0,0,0-12.29-7,75.57,75.57,0,0,1,19.78,7.36l3.35-6.51A3.88,3.88,0,0,0,86.68,20.6Zm-55,12.5A1.08,1.08,0,1,1,32.8,32,1.08,1.08,0,0,1,31.72,33.1ZM51,21.24a1.91,1.91,0,1,1-1.91,1.91A1.92,1.92,0,0,1,51,21.24Zm0,37.83a1.91,1.91,0,1,1,1.91-1.91A1.92,1.92,0,0,1,51,59.07ZM72.45,40.23A11.79,11.79,0,1,1,60.66,28.45,11.78,11.78,0,0,1,72.45,40.23Z"/><circle class="cls-2" cx="60.66" cy="40.23" r="11.78"/><path class="cls-2" d="M31.72,31A1.08,1.08,0,1,0,32.8,32,1.08,1.08,0,0,0,31.72,31Z"/><path class="cls-2" d="M51,25.06a1.91,1.91,0,1,0-1.91-1.91A1.91,1.91,0,0,0,51,25.06Z"/><path class="cls-2" d="M51,55.25a1.91,1.91,0,1,0,1.91,1.91A1.92,1.92,0,0,0,51,55.25Z"/><path class="cls-2" d="M92.87,28.14a8.84,8.84,0,0,0,.36-7.31,9.32,9.32,0,0,0-4.78-4.91c-1.59-.76-3.2-1.46-4.83-2.12a1,1,0,0,1-.61-.68,2.91,2.91,0,0,0-2.84-2.32c-.11,0-.21,0-.32,0a3.56,3.56,0,0,0-3.26-2.12,3.52,3.52,0,0,0-2.65,1.2,1,1,0,0,1-1,.3l-.76-.2a1,1,0,0,1-.67-.5,2.89,2.89,0,0,0-4.44-1,1,1,0,0,1-.79.18A90.77,90.77,0,0,0,49.8,7.22a89.2,89.2,0,0,0-39,8.89,8.82,8.82,0,0,0-4.7,5.67,9.31,9.31,0,0,0,.83,6.64l3.23,6.29a1.56,1.56,0,0,1-.38,1.89A7.2,7.2,0,0,0,12.61,49a7.23,7.23,0,0,0,5.2,4.42,8.63,8.63,0,0,0,1.22.12,1.31,1.31,0,0,1,1.11.72L34.94,83a1.12,1.12,0,0,1-.41,1.47,3.56,3.56,0,0,0,1,6.53,3.45,3.45,0,0,0,2.24-.21,1.1,1.1,0,0,1,1.42.53l4,7.76A7.53,7.53,0,0,0,49,103.24a7.27,7.27,0,0,0,7.24-3.91l6.1-11.87a.89.89,0,0,1,1-.46,4.53,4.53,0,0,0,1.61.07l.24,0a4.92,4.92,0,0,0,4.18-4.85,4.58,4.58,0,0,0-.14-1.12h0a4.88,4.88,0,0,0,2.19-9.24.9.9,0,0,1-.42-1.23L86.3,40.92a1.26,1.26,0,0,1,1.29-.71,3.61,3.61,0,0,0,1.84-.2,3.55,3.55,0,0,0,1.33-5.73,1.37,1.37,0,0,1-.26-1.54Zm-4.43-2.28-3.35,6.51A75.57,75.57,0,0,0,65.31,25,46.25,46.25,0,0,1,77.6,32a1.89,1.89,0,0,0-.35,1.09,1.91,1.91,0,0,0,3.22,1.39c1,1,1.81,1.8,2.36,2.43l-14.89,29a11.78,11.78,0,0,0-19.61,6.68A11.93,11.93,0,0,0,48.69,78a3.1,3.1,0,1,0,3.2,5.17,11.76,11.76,0,0,0,5.67,3l-5.63,11a2.29,2.29,0,0,1-4.08,0l-15.42-30a11.72,11.72,0,0,0,5.17-2.22,3.09,3.09,0,1,0,3.75-4.76,11.69,11.69,0,0,0,.91-5.52A11.89,11.89,0,0,0,30.69,43.66a11.86,11.86,0,0,0-8.51,3.45L16.11,35.29l.34-.23c3.34-2.19,12.42-7.82,22.07-10.81a74,74,0,0,0-15.43,4.16,2.53,2.53,0,0,0-4.87,1,2.43,2.43,0,0,0,.23,1c-1.33.62-2.64,1.26-3.93,2l-3.35-6.51a3.88,3.88,0,0,1,1.76-5.26,85.23,85.23,0,0,1,73.75,0A3.88,3.88,0,0,1,88.44,25.86Z"/><path class="cls-2" d="M117.17,40.55a3.33,3.33,0,0,0,3.36,3,8.65,8.65,0,0,0,3.25-.2,4.22,4.22,0,0,0,1.32-.67,1.86,1.86,0,0,0-.34-3.19,12.82,12.82,0,0,0-2.86-.75A26.32,26.32,0,0,1,115,37.07c-5.33-2.36-5.83-8.94-3.26-12.31a9.2,9.2,0,0,1,4.5-3.19,15.11,15.11,0,0,1,10.52.1,8.47,8.47,0,0,1,5.52,5.93,23.64,23.64,0,0,1,.39,2.38h-7.18a1.22,1.22,0,0,1-.09-.27,2.38,2.38,0,0,0-1.57-2.09,6.08,6.08,0,0,0-4.79,0,2.07,2.07,0,0,0-1.31,2.41,1.45,1.45,0,0,0,.77,1.13,6.42,6.42,0,0,0,1.66.62c1.34.25,2.71.4,4.06.61a15.7,15.7,0,0,1,5.21,1.69,7.27,7.27,0,0,1,3.82,5.17,8.17,8.17,0,0,1-4.78,9.45,14.54,14.54,0,0,1-6.13,1.36,16.88,16.88,0,0,1-6.39-.91,8.45,8.45,0,0,1-5.59-5.85,27,27,0,0,1-.48-2.77Z"/><path class="cls-2" d="M171.15,48.74v9.35h-6.92v-.84q0-9.54,0-19.07a6.73,6.73,0,0,0-.1-1.27,1.29,1.29,0,0,0-1.35-1.23l-.77-.09V30a14.21,14.21,0,0,1,1.55-.29,9.89,9.89,0,0,1,3.55.28,4.35,4.35,0,0,1,3,2.59,6.25,6.25,0,0,1,.4-.55,7.59,7.59,0,0,1,7-2.4,7.89,7.89,0,0,1,5.23,2.71,9.36,9.36,0,0,1,2.13,4.46,12.62,12.62,0,0,1-1.33,9.22,7.85,7.85,0,0,1-7.05,4,8.79,8.79,0,0,1-3.45-.45C172.4,49.38,171.84,49.07,171.15,48.74Zm3.59-13.34a3.27,3.27,0,0,0-3.34,2.34,6.79,6.79,0,0,0-.2,3.89,3.58,3.58,0,0,0,6.85.32,6.38,6.38,0,0,0,.18-3.67A3.48,3.48,0,0,0,174.74,35.4Z"/><path class="cls-2" d="M150.33,30h6.88v.85c0,3.77,0,7.53,0,11.3a4.53,4.53,0,0,0,.12,1,1.27,1.27,0,0,0,1.44,1.19l.49,0v5.24a8.83,8.83,0,0,1-1.27.18,22.92,22.92,0,0,1-3.42-.1c-1.55-.23-2.38-1-3.26-2.65a2.8,2.8,0,0,0-.25.22,7.63,7.63,0,0,1-6.39,2.78,6.76,6.76,0,0,1-5-2.2,8,8,0,0,1-2.08-5c-.1-1.61-.08-3.24-.11-4.86,0-.35,0-.69,0-1,0-1-.38-1.72-1.77-1.77V30a11.37,11.37,0,0,1,5.22.19,4.76,4.76,0,0,1,3.38,4.48c.17,2,.11,3.93.17,5.9a9.76,9.76,0,0,0,.15,1.62,2.27,2.27,0,0,0,2.05,2.05,2.75,2.75,0,0,0,2.8-1.17,4.89,4.89,0,0,0,.84-3c0-3.07,0-6.14,0-9.2Z"/><path class="cls-2" d="M195.25,42.61a4.69,4.69,0,0,0,3.69,1.93,14.11,14.11,0,0,0,6.53-.83,3.27,3.27,0,0,1,.34-.07L207,48.36a12.36,12.36,0,0,1-3.31,1.25,18.43,18.43,0,0,1-6,.44,10.7,10.7,0,0,1-7.53-3.47,9.24,9.24,0,0,1-2.25-5.64,11.94,11.94,0,0,1,.54-4.86,8.93,8.93,0,0,1,4.91-5.34,12.76,12.76,0,0,1,10.22-.26,5.7,5.7,0,0,1,3.79,6.05,5.25,5.25,0,0,1-3.22,4.58,15.15,15.15,0,0,1-5.77,1.33Zm-.6-4.24a12.68,12.68,0,0,0,3.6-.22,7.22,7.22,0,0,0,1.55-.51,1.34,1.34,0,0,0,.82-1.52A1.37,1.37,0,0,0,199.51,35,3.72,3.72,0,0,0,194.65,38.37Z"/><path class="cls-2" d="M219.29,49.61h-7V38.25c0-.32,0-.65,0-1a1.45,1.45,0,0,0-1.55-1.62l-.65,0V30.06a10,10,0,0,1,5.76.16,4.13,4.13,0,0,1,2.36,2.49,6.73,6.73,0,0,1,4.63-3,8.1,8.1,0,0,1,5.51,1.16l-2.19,5.62c-.64-.19-1.22-.4-1.82-.53a4,4,0,0,0-5,4c-.06,1.19,0,2.39,0,3.59,0,1.74,0,3.49,0,5.24Z"/><path class="cls-2" d="M117.37,76.21V84H110V55.63c.21,0,.4-.05.59-.05,4.27,0,8.53,0,12.8,0a10,10,0,0,1,6,2.07,8.79,8.79,0,0,1,3.46,5.58,11.08,11.08,0,0,1-1.5,8.73,9.58,9.58,0,0,1-6.27,4,31.34,31.34,0,0,1-5.89.27C118.61,76.22,118,76.21,117.37,76.21ZM117.43,62v7.84c1.54,0,3,0,4.47,0a3.52,3.52,0,0,0,2.73-1.19,4.32,4.32,0,0,0,.69-4.22,2.83,2.83,0,0,0-2.48-2.18C121.06,62,119.27,62,117.43,62Z"/><path class="cls-2" d="M200.51,81.57a6.52,6.52,0,0,1-4.84,2.84c-4.83.57-8.92-1.57-10-6.94a12.27,12.27,0,0,1,.57-7.33A9.21,9.21,0,0,1,191.68,65a16.7,16.7,0,0,1,4.2-.93A25.26,25.26,0,0,1,206,65.41c.07,0,.13.06.27.12V75.81c0,.15,0,.3,0,.45.08,2,.64,2.09,2,2.23a1.81,1.81,0,0,1,.25.05V84c-.43.06-.88.15-1.33.21a9.6,9.6,0,0,1-3.92-.26A4.08,4.08,0,0,1,200.51,81.57Zm-1-11.7a27.19,27.19,0,0,0-3.36,0,4,4,0,0,0-3.71,2.78,5.6,5.6,0,0,0,.13,4,3.42,3.42,0,0,0,3.69,2.09,2.89,2.89,0,0,0,3-2.86C199.42,73.94,199.38,72,199.46,69.87Z"/><path class="cls-2" d="M156,79l3.43.86a8.39,8.39,0,0,0,4.63-.25l.76-.26v5.52a10.12,10.12,0,0,1-2.76.77,16.82,16.82,0,0,1-6.43-.51c-1.38-.29-2.76-.61-4.15-.84a14.07,14.07,0,0,0-4.1-.16,5.2,5.2,0,0,1-.56,0,5,5,0,0,1,.62-3.37c2.26-3.31,4.4-6.69,6.59-10,.15-.22.27-.46.45-.77h-6.92V64.47H164v2.1Z"/><path class="cls-2" d="M175.36,79l3.43.86a8.39,8.39,0,0,0,4.63-.25l.76-.26v5.52a10.12,10.12,0,0,1-2.76.77,16.82,16.82,0,0,1-6.43-.51c-1.38-.29-2.76-.61-4.15-.84a14.07,14.07,0,0,0-4.1-.16,5.2,5.2,0,0,1-.56,0,5,5,0,0,1,.62-3.37c2.26-3.31,4.4-6.69,6.59-10,.15-.22.27-.46.45-.77h-6.92V64.47h16.47v2.1Z"/><path class="cls-2" d="M143.33,84H136.5V64.47h6.83Z"/><path class="cls-2" d="M139.91,62.51a3.86,3.86,0,0,1-3.83-2.45,3.59,3.59,0,0,1,2.82-4.94,5.15,5.15,0,0,1,2.5.11A3.38,3.38,0,0,1,144,58.82a3.46,3.46,0,0,1-2.8,3.5C140.75,62.43,140.32,62.44,139.91,62.51Z"/></svg>